<?xml version="1.0" encoding="utf-8"?>
<!-- Generator: Adobe Illustrator 25.0.0, SVG Export Plug-In . SVG Version: 6.00 Build 0)  -->
<svg version="1.1" id="Layer_1" xmlns="http://www.w3.org/2000/svg" xmlns:xlink="http://www.w3.org/1999/xlink" x="0px" y="0px"
	 viewBox="0 0 182 44" style="enable-background:new 0 0 182 44;" xml:space="preserve">
<style type="text/css">
	.st0{display:none;fill:#0F2239;}
	.st1{enable-background:new    ;}
	.st2{fill:#2DC4BB;}
	.st3{fill:#EBEBEB;}
	.st4{fill:#2A93A6;}
	.st5{fill:#166369;}
</style>
<path class="st0" d="M55.7,36v-4.8h14.1V36H55.7z M55.7,12.8V8h14.1v4.8H55.7z M55.7,23.5v-4.8H69v4.8H55.7z M52,8h5.5v28H52V8z
	 M75.5,8h5.8v28h-5.8V8z M85,36h-5.8v-5.2h5.6c1.2,0,2.4-0.2,3.5-0.5s2.1-0.9,2.9-1.6s1.5-1.6,1.9-2.7c0.5-1.1,0.7-2.5,0.7-4
	s-0.2-2.9-0.7-4s-1.1-2-1.9-2.8c-0.8-0.7-1.8-1.2-2.9-1.6c-1.1-0.3-2.3-0.5-3.5-0.5h-5.6V8H85c2.9,0,5.5,0.6,7.7,1.7
	s3.9,2.8,5.2,4.9c1.2,2.1,1.8,4.5,1.8,7.4s-0.6,5.3-1.8,7.4c-1.2,2.1-2.9,3.7-5.2,4.8C90.5,35.4,87.9,36,85,36z M103.9,8h5.7v18.4
	c0,1.6,0.4,2.9,1.2,3.9c0.9,1,2.1,1.4,3.8,1.4c1.7,0,2.9-0.5,3.7-1.4c0.9-1,1.3-2.3,1.3-3.9V8h5.7v18.8c0,1.7-0.3,3.1-0.8,4.4
	c-0.5,1.3-1.3,2.3-2.3,3.2c-1,0.9-2.1,1.5-3.4,1.9c-1.3,0.5-2.7,0.7-4.2,0.7s-3-0.2-4.3-0.7c-1.3-0.4-2.4-1.1-3.4-1.9
	c-1-0.9-1.7-1.9-2.2-3.2s-0.8-2.7-0.8-4.4L103.9,8L103.9,8z M137.5,23h6l9.1,13h-6.8L137.5,23z M131.2,8h5.7v28h-5.7V8z M134.7,12.9
	V8h5.9c2.2,0,4.1,0.4,5.6,1.1c1.5,0.7,2.7,1.8,3.6,3.1c0.8,1.3,1.2,2.9,1.2,4.7c0,1.8-0.4,3.3-1.2,4.7c-0.8,1.3-2,2.4-3.6,3.1
	c-1.5,0.7-3.4,1.1-5.6,1.1h-5.9v-4.6h5.6c1,0,1.9-0.2,2.6-0.5c0.7-0.3,1.3-0.8,1.7-1.4s0.6-1.4,0.6-2.3s-0.2-1.6-0.6-2.2
	c-0.4-0.6-1-1.1-1.7-1.4c-0.7-0.3-1.6-0.5-2.6-0.5C140.3,12.9,134.7,12.9,134.7,12.9z M159.9,29.6l0.7-4.5H174l0.7,4.5H159.9z
	 M167.2,17.1l-4.2,9.6l0.1,1.3l-3.7,8H153l14.2-29.6L181.4,36h-6.5l-3.6-7.8l0.1-1.4L167.2,17.1z"/>
<g class="st1">
	<path class="st2" d="M51,36.3v-8.2h0.7l3.8,6.4h-0.4l3.7-6.4h0.7v8.2h-0.8v-6.9H59l-3.4,5.9h-0.4l-3.5-5.9h0.2v6.9H51z"/>
	<path class="st2" d="M61,36.3l3.8-8.2h0.9l3.8,8.2h-0.9L65,28.6h0.4l-3.5,7.7H61z M62.4,34.1l0.3-0.7h4.8l0.3,0.7H62.4z"/>
	<path class="st2" d="M71.6,36.3h-0.9v-8.2h0.9V36.3z M76.8,32.5h-5.3v-0.8h5.3V32.5z M76.7,28.1h0.9v8.2h-0.9V28.1z"/>
	<path class="st2" d="M80.3,36.3v-8.2H81l3.8,6.4h-0.4l3.7-6.4h0.7v8.2H88v-6.9h0.2l-3.4,5.9h-0.4l-3.5-5.9h0.2v6.9H80.3z"/>
	<path class="st2" d="M95.1,36.4c-0.6,0-1.2-0.1-1.7-0.3s-1-0.5-1.4-0.9s-0.7-0.8-0.9-1.3c-0.2-0.5-0.3-1.1-0.3-1.7s0.1-1.2,0.3-1.7
		c0.2-0.5,0.5-0.9,0.9-1.3s0.8-0.7,1.4-0.9s1.1-0.3,1.7-0.3s1.2,0.1,1.7,0.3s1,0.5,1.4,0.9s0.7,0.8,0.9,1.3c0.2,0.5,0.3,1.1,0.3,1.7
		c0,0.6-0.1,1.2-0.3,1.7s-0.5,1-0.9,1.3c-0.4,0.4-0.8,0.7-1.4,0.9S95.8,36.4,95.1,36.4z M95.1,35.6c0.5,0,1-0.1,1.4-0.3
		s0.8-0.4,1.1-0.7c0.3-0.3,0.6-0.7,0.7-1.1s0.3-0.9,0.3-1.4s-0.1-0.9-0.3-1.4s-0.4-0.8-0.7-1.1c-0.3-0.3-0.7-0.5-1.1-0.7
		s-0.9-0.3-1.4-0.3s-1,0.1-1.4,0.3s-0.8,0.4-1.1,0.7c-0.3,0.3-0.6,0.7-0.7,1.1s-0.3,0.9-0.3,1.4s0.1,0.9,0.3,1.4
		c0.2,0.4,0.4,0.8,0.7,1.1c0.3,0.3,0.7,0.5,1.1,0.7C94.2,35.5,94.6,35.6,95.1,35.6z"/>
	<path class="st2" d="M104.7,36.4c-1.1,0-1.9-0.3-2.5-0.9s-0.9-1.5-0.9-2.7v-4.7h0.9v4.7c0,1,0.2,1.7,0.7,2.2
		c0.4,0.5,1.1,0.7,1.9,0.7s1.4-0.2,1.9-0.7c0.4-0.5,0.7-1.2,0.7-2.2v-4.7h0.8v4.7c0,1.2-0.3,2.1-0.9,2.7S105.8,36.4,104.7,36.4z"/>
	<path class="st2" d="M110.7,36.3v-8.2h3.4c0.9,0,1.7,0.2,2.3,0.5c0.7,0.3,1.2,0.8,1.5,1.5s0.6,1.3,0.6,2.1s-0.2,1.5-0.6,2.1
		s-0.9,1.1-1.5,1.5c-0.7,0.3-1.4,0.5-2.3,0.5C114.1,36.3,110.7,36.3,110.7,36.3z M111.6,35.6h2.4c0.7,0,1.4-0.1,1.9-0.4
		c0.5-0.3,1-0.7,1.3-1.2s0.4-1.1,0.4-1.7c0-0.7-0.1-1.3-0.4-1.8s-0.7-0.9-1.3-1.2c-0.5-0.3-1.2-0.4-1.9-0.4h-2.4V35.6z"/>
	<path class="st2" d="M123.6,36.3v-8.2h3.1c0.7,0,1.3,0.1,1.8,0.3c0.5,0.2,0.9,0.5,1.2,1s0.4,0.9,0.4,1.5s-0.1,1.1-0.4,1.5
		c-0.3,0.4-0.7,0.7-1.2,1c-0.5,0.2-1.1,0.3-1.8,0.3H124l0.4-0.4v3C124.4,36.3,123.6,36.3,123.6,36.3z M124.4,33.4L124,33h2.6
		c0.8,0,1.5-0.2,1.9-0.5c0.4-0.4,0.6-0.9,0.6-1.5c0-0.7-0.2-1.2-0.6-1.5c-0.4-0.4-1.1-0.5-1.9-0.5H124l0.4-0.4V33.4z M129.2,36.3
		l-2.1-3h0.9l2.1,3H129.2z"/>
	<path class="st2" d="M130.7,36.3l3.8-8.2h0.9l3.8,8.2h-0.9l-3.5-7.7h0.4l-3.5,7.7H130.7z M132.2,34.1l0.3-0.7h4.8l0.3,0.7H132.2z"
		/>
	<path class="st2" d="M140.5,36.3v-8.2h3.4c0.9,0,1.7,0.2,2.3,0.5c0.7,0.3,1.2,0.8,1.5,1.5s0.6,1.3,0.6,2.1s-0.2,1.5-0.6,2.1
		s-0.9,1.1-1.5,1.5c-0.7,0.3-1.4,0.5-2.3,0.5C143.9,36.3,140.5,36.3,140.5,36.3z M141.4,35.6h2.4c0.7,0,1.4-0.1,1.9-0.4
		c0.5-0.3,1-0.7,1.3-1.2s0.4-1.1,0.4-1.7c0-0.7-0.1-1.3-0.4-1.8c-0.3-0.5-0.7-0.9-1.3-1.2c-0.5-0.3-1.2-0.4-1.9-0.4h-2.4V35.6z"/>
	<path class="st2" d="M152.1,36.3l-2.8-8.2h0.9l2.6,7.8h-0.4l2.7-7.8h0.8l2.6,7.8h-0.4l2.6-7.8h0.8l-2.8,8.2h-0.9l-2.5-7.4h0.2
		l-2.5,7.4H152.1z"/>
	<path class="st2" d="M162,36.3l3.8-8.2h0.9l3.8,8.2h-0.9l-3.5-7.7h0.4l-3.5,7.7H162z M163.5,34.1l0.3-0.7h4.8l0.3,0.7H163.5z"/>
	<path class="st2" d="M171.8,36.3v-8.2h0.7l5.7,7.2h-0.4v-7.2h0.9v8.2H178l-5.7-7.2h0.4v7.2H171.8z"/>
</g>
<g class="st1">
	<path class="st3" d="M51.6,19.6h7.9v1.2h-9.3V7.6h9v1.2h-7.6C51.6,8.8,51.6,19.6,51.6,19.6z M51.5,13.5h6.9v1.2h-6.9V13.5z"/>
	<path class="st3" d="M62.8,20.8V7.6H64l9,11.5h-0.6V7.6h1.4v13.1h-1.1L63.6,9.4h0.6v11.4H62.8z"/>
	<path class="st3" d="M83.9,20.9c-1,0-1.9-0.2-2.8-0.5c-0.8-0.3-1.6-0.8-2.2-1.4s-1.1-1.3-1.4-2.1c-0.3-0.8-0.5-1.7-0.5-2.7
		s0.2-1.9,0.5-2.7S78.3,10,79,9.4c0.6-0.6,1.4-1.1,2.2-1.4C82,7.7,83,7.5,84,7.5s1.9,0.2,2.8,0.5c0.8,0.3,1.5,0.8,2.1,1.4L88,10.3
		c-0.6-0.6-1.2-0.9-1.8-1.2c-0.7-0.2-1.4-0.4-2.1-0.4c-0.8,0-1.6,0.1-2.2,0.4c-0.7,0.3-1.3,0.7-1.8,1.1c-0.5,0.5-0.9,1.1-1.2,1.7
		s-0.4,1.4-0.4,2.2s0.1,1.5,0.4,2.2c0.3,0.7,0.7,1.2,1.2,1.7s1.1,0.9,1.8,1.1c0.7,0.3,1.4,0.4,2.2,0.4c0.8,0,1.5-0.1,2.1-0.3
		c0.7-0.2,1.3-0.6,1.8-1.1l0.8,1.1c-0.6,0.6-1.4,1-2.2,1.2C85.6,20.8,84.8,20.9,83.9,20.9z M87.3,19.1v-4.8h1.3v5L87.3,19.1z"/>
	<path class="st3" d="M92.6,20.8V7.6H94v11.9h7.4v1.2L92.6,20.8L92.6,20.8z"/>
	<path class="st3" d="M103.7,20.8V7.6h1.4v13.1L103.7,20.8L103.7,20.8z"/>
	<path class="st3" d="M110.7,20.8h-1.4V7.6h1.4V20.8z M119.1,14.7h-8.5v-1.2h8.5V14.7z M118.9,7.6h1.4v13.1h-1.4V7.6z"/>
	<path class="st3" d="M128.2,20.9c-1,0-1.9-0.2-2.8-0.5s-1.6-0.7-2.1-1.2l0.5-1.1c0.5,0.5,1.1,0.8,1.9,1.1s1.6,0.5,2.5,0.5
		c0.8,0,1.5-0.1,2-0.3c0.5-0.2,0.9-0.5,1.1-0.8s0.4-0.7,0.4-1.2s-0.1-0.9-0.4-1.2c-0.3-0.3-0.7-0.6-1.2-0.7c-0.5-0.2-1-0.3-1.6-0.5
		c-0.6-0.1-1.2-0.3-1.7-0.4c-0.6-0.2-1.1-0.4-1.6-0.6s-0.9-0.6-1.2-1s-0.4-1-0.4-1.7s0.2-1.2,0.5-1.8c0.3-0.5,0.9-1,1.6-1.3
		s1.6-0.5,2.7-0.5c0.7,0,1.5,0.1,2.2,0.3c0.7,0.2,1.4,0.5,1.9,0.9L132,10c-0.6-0.4-1.2-0.7-1.8-0.8c-0.6-0.2-1.2-0.3-1.8-0.3
		c-0.8,0-1.4,0.1-2,0.3s-0.9,0.5-1.1,0.9s-0.4,0.8-0.4,1.2c0,0.5,0.1,0.9,0.4,1.2s0.7,0.6,1.2,0.7c0.5,0.2,1,0.3,1.6,0.5
		c0.6,0.1,1.1,0.3,1.7,0.5c0.6,0.2,1.1,0.4,1.6,0.6c0.5,0.3,0.9,0.6,1.2,1c0.3,0.4,0.4,1,0.4,1.7c0,0.6-0.2,1.2-0.5,1.8
		c-0.4,0.5-0.9,1-1.6,1.3C130.3,20.7,129.3,20.9,128.2,20.9z"/>
	<path class="st3" d="M134,20.8l6-13.1h1.4l6,13.1H146l-5.5-12.3h0.6l-5.5,12.3H134z M136.4,17.3l0.4-1.1h7.6l0.4,1.1H136.4z"/>
	<path class="st3" d="M152.6,20.8l-4.4-13.1h1.4l4.1,12.4H153l4.3-12.4h1.3l4.2,12.4h-0.7l4.2-12.4h1.3l-4.4,13.1h-1.5l-4-11.7h0.4
		L154,20.8H152.6z"/>
	<path class="st3" d="M173.6,20.8v-4.9l0.3,0.9l-5.6-9.1h1.5l4.9,8h-0.8l4.9-8h1.4l-5.6,9.1l0.3-0.9v4.9H173.6z"/>
</g>
<path class="st4" d="M45.2,5.4c0,2.2-1.2,3.8-3.3,4.4c-8.3,2.3-16.6,4.7-24.9,7c-1,0.3-1.9,0.6-2.9,0.8c-2.3,0.5-4.5-0.8-5.1-3
	c-0.6-2.2,0.6-4.5,2.8-5.2c2.3-0.7,4.7-1.3,7-2c6.9-1.9,13.7-3.9,20.6-5.8C42,0.8,44.3,2,45,4.4C45.1,4.8,45.2,5.2,45.2,5.4z"/>
<path class="st3" d="M35.4,27.4c2.1,0.1,3.9,1.6,4.2,3.6c0.3,2.2-0.9,4.2-3.1,4.8c-2.9,0.8-5.8,1.5-8.7,2.3
	c-6.1,1.6-12.3,3.1-18.4,4.7c-1.4,0.4-2.8,0.4-4.1-0.5c-1.5-1.1-2.1-2.5-1.8-4.3c0.3-1.7,1.4-2.9,3.1-3.4c4.3-1.1,8.6-2.2,12.9-3.3
	c4.9-1.3,9.8-2.5,14.6-3.7C34.5,27.5,35,27.4,35.4,27.4z"/>
<path class="st5" d="M10.1,30.4c-2.1-0.1-3.9-1.6-4.2-3.6c-0.3-2.2,0.9-4.2,3.1-4.8c2.8-0.8,5.6-1.5,8.3-2.2
	c3.5-0.9,7.1-1.9,10.7-2.8c2.1-0.5,4.2,0.7,4.9,2.6c0.7,1.9,0,4.2-1.8,5.2c-0.4,0.3-0.9,0.4-1.4,0.6c-6,1.6-12,3.2-18,4.8
	C11.2,30.2,10.6,30.3,10.1,30.4z"/>
</svg>
